<?xml version="1.0" encoding="UTF-8" standalone="no"?>
<!DOCTYPE svg PUBLIC "-//W3C//DTD SVG 1.1//EN"
 "http://www.w3.org/Graphics/SVG/1.1/DTD/svg11.dtd">
<!-- Generated by graphviz version 5.0.0 (20220707.1540)
 -->
<!-- Title: dependencies Pages: 1 -->
<svg width="310pt" height="174pt"
 viewBox="0.00 0.00 310.00 173.80" xmlns="http://www.w3.org/2000/svg" xmlns:xlink="http://www.w3.org/1999/xlink">
<g id="graph0" class="graph" transform="scale(1 1) rotate(0) translate(4 169.8)">
<title>dependencies</title>
<polygon fill="white" stroke="transparent" points="-4,4 -4,-169.8 306,-169.8 306,4 -4,4"/>
<text text-anchor="middle" x="151" y="-8.2" font-family="sans-serif" font-size="14.00">dependencies</text>
<g id="clust1" class="cluster">
<title>cluster_SharedModule</title>
<polygon fill="none" stroke="black" stroke-dasharray="1,5" points="8,-32.8 8,-157.8 294,-157.8 294,-32.8 8,-32.8"/>
</g>
<g id="clust4" class="cluster">
<title>cluster_SharedModule_exports</title>
<polygon fill="none" stroke="black" points="16,-97.8 16,-149.8 286,-149.8 286,-97.8 16,-97.8"/>
</g>
<!-- C3ImportModule  -->
<g id="node1" class="node">
<title>C3ImportModule </title>
<polygon fill="#fb8072" stroke="black" points="277.99,-141.8 160.01,-141.8 160.01,-105.8 277.99,-105.8 277.99,-141.8"/>
<text text-anchor="middle" x="219" y="-119.6" font-family="Times,serif" font-size="14.00">C3ImportModule </text>
</g>
<!-- NgImportModule  -->
<g id="node2" class="node">
<title>NgImportModule </title>
<polygon fill="#fb8072" stroke="black" points="142.27,-141.8 23.73,-141.8 23.73,-105.8 142.27,-105.8 142.27,-141.8"/>
<text text-anchor="middle" x="83" y="-119.6" font-family="Times,serif" font-size="14.00">NgImportModule </text>
</g>
<!-- SharedModule -->
<g id="node3" class="node">
<title>SharedModule</title>
<polygon fill="#8dd3c7" stroke="black" points="200.43,-76.8 197.43,-80.8 176.43,-80.8 173.43,-76.8 101.57,-76.8 101.57,-40.8 200.43,-40.8 200.43,-76.8"/>
<text text-anchor="middle" x="151" y="-54.6" font-family="Times,serif" font-size="14.00">SharedModule</text>
</g>
<!-- SharedModule&#45;&gt;C3ImportModule  -->
<g id="edge1" class="edge">
<title>SharedModule&#45;&gt;C3ImportModule </title>
<path fill="none" stroke="black" stroke-dasharray="5,2" d="M180.23,-76.91C180.23,-76.91 180.23,-95.79 180.23,-95.79"/>
<polygon fill="black" stroke="black" points="176.73,-95.79 180.23,-105.79 183.73,-95.79 176.73,-95.79"/>
</g>
<!-- SharedModule&#45;&gt;NgImportModule  -->
<g id="edge2" class="edge">
<title>SharedModule&#45;&gt;NgImportModule </title>
<path fill="none" stroke="black" stroke-dasharray="5,2" d="M121.96,-76.91C121.96,-76.91 121.96,-95.79 121.96,-95.79"/>
<polygon fill="black" stroke="black" points="118.46,-95.79 121.96,-105.79 125.46,-95.79 118.46,-95.79"/>
</g>
</g>
</svg>
