<?xml version="1.0" encoding="UTF-8" standalone="no"?>
<!DOCTYPE svg PUBLIC "-//W3C//DTD SVG 1.1//EN"
 "http://www.w3.org/Graphics/SVG/1.1/DTD/svg11.dtd">
<!-- Generated by graphviz version 5.0.0 (20220707.1540)
 -->
<!-- Title: dependencies Pages: 1 -->
<svg width="904pt" height="247pt"
 viewBox="0.00 0.00 904.00 246.80" xmlns="http://www.w3.org/2000/svg" xmlns:xlink="http://www.w3.org/1999/xlink">
<g id="graph0" class="graph" transform="scale(1 1) rotate(0) translate(4 242.8)">
<title>dependencies</title>
<polygon fill="white" stroke="transparent" points="-4,4 -4,-242.8 900,-242.8 900,4 -4,4"/>
<text text-anchor="middle" x="448" y="-8.2" font-family="sans-serif" font-size="14.00">dependencies</text>
<g id="clust1" class="cluster">
<title>cluster_ViewModule</title>
<polygon fill="none" stroke="black" stroke-dasharray="1,5" points="8,-32.8 8,-230.8 888,-230.8 888,-32.8 8,-32.8"/>
</g>
<g id="clust5" class="cluster">
<title>cluster_ViewModule_imports</title>
<polygon fill="none" stroke="black" points="376,-40.8 376,-92.8 880,-92.8 880,-40.8 376,-40.8"/>
</g>
<g id="clust6" class="cluster">
<title>cluster_ViewModule_exports</title>
<polygon fill="none" stroke="black" points="345,-170.8 345,-222.8 705,-222.8 705,-170.8 345,-170.8"/>
</g>
<g id="clust2" class="cluster">
<title>cluster_ViewModule_declarations</title>
<polygon fill="none" stroke="black" points="16,-40.8 16,-92.8 368,-92.8 368,-40.8 16,-40.8"/>
</g>
<!-- ViewDashboardComponent -->
<g id="node1" class="node">
<title>ViewDashboardComponent</title>
<polygon fill="#ffffb3" stroke="black" points="360.3,-84.8 187.7,-84.8 187.7,-48.8 360.3,-48.8 360.3,-84.8"/>
<text text-anchor="middle" x="274" y="-62.6" font-family="Times,serif" font-size="14.00">ViewDashboardComponent</text>
</g>
<!-- ViewModule -->
<g id="node3" class="node">
<title>ViewModule</title>
<polygon fill="#8dd3c7" stroke="black" points="562.88,-149.8 559.88,-153.8 538.88,-153.8 535.88,-149.8 473.12,-149.8 473.12,-113.8 562.88,-113.8 562.88,-149.8"/>
<text text-anchor="middle" x="518" y="-127.6" font-family="Times,serif" font-size="14.00">ViewModule</text>
</g>
<!-- ViewDashboardComponent&#45;&gt;ViewModule -->
<g id="edge1" class="edge">
<title>ViewDashboardComponent&#45;&gt;ViewModule</title>
<path fill="none" stroke="black" d="M270.58,-84.82C270.58,-102.17 270.58,-125.8 270.58,-125.8 270.58,-125.8 462.91,-125.8 462.91,-125.8"/>
<polygon fill="black" stroke="black" points="462.91,-129.3 472.91,-125.8 462.91,-122.3 462.91,-129.3"/>
</g>
<!-- ViewHomeComponent -->
<g id="node2" class="node">
<title>ViewHomeComponent</title>
<polygon fill="#ffffb3" stroke="black" points="169.87,-84.8 24.13,-84.8 24.13,-48.8 169.87,-48.8 169.87,-84.8"/>
<text text-anchor="middle" x="97" y="-62.6" font-family="Times,serif" font-size="14.00">ViewHomeComponent</text>
</g>
<!-- ViewHomeComponent&#45;&gt;ViewModule -->
<g id="edge2" class="edge">
<title>ViewHomeComponent&#45;&gt;ViewModule</title>
<path fill="none" stroke="black" d="M97,-85.08C97,-106.12 97,-137.8 97,-137.8 97,-137.8 462.95,-137.8 462.95,-137.8"/>
<polygon fill="black" stroke="black" points="462.95,-141.3 472.95,-137.8 462.95,-134.3 462.95,-141.3"/>
</g>
<!-- ViewDashboardComponent  -->
<g id="node8" class="node">
<title>ViewDashboardComponent </title>
<polygon fill="#fb8072" stroke="black" points="696.8,-214.8 521.2,-214.8 521.2,-178.8 696.8,-178.8 696.8,-214.8"/>
<text text-anchor="middle" x="609" y="-192.6" font-family="Times,serif" font-size="14.00">ViewDashboardComponent </text>
</g>
<!-- ViewModule&#45;&gt;ViewDashboardComponent  -->
<g id="edge7" class="edge">
<title>ViewModule&#45;&gt;ViewDashboardComponent </title>
<path fill="none" stroke="black" stroke-dasharray="5,2" d="M542.02,-149.91C542.02,-149.91 542.02,-168.79 542.02,-168.79"/>
<polygon fill="black" stroke="black" points="538.52,-168.79 542.02,-178.79 545.52,-168.79 538.52,-168.79"/>
</g>
<!-- ViewHomeComponent  -->
<g id="node9" class="node">
<title>ViewHomeComponent </title>
<polygon fill="#fb8072" stroke="black" points="502.87,-214.8 353.13,-214.8 353.13,-178.8 502.87,-178.8 502.87,-214.8"/>
<text text-anchor="middle" x="428" y="-192.6" font-family="Times,serif" font-size="14.00">ViewHomeComponent </text>
</g>
<!-- ViewModule&#45;&gt;ViewHomeComponent  -->
<g id="edge8" class="edge">
<title>ViewModule&#45;&gt;ViewHomeComponent </title>
<path fill="none" stroke="black" stroke-dasharray="5,2" d="M487.87,-149.91C487.87,-149.91 487.87,-168.79 487.87,-168.79"/>
<polygon fill="black" stroke="black" points="484.37,-168.79 487.87,-178.79 491.37,-168.79 484.37,-168.79"/>
</g>
<!-- FeatureModule -->
<g id="node4" class="node">
<title>FeatureModule</title>
<polygon fill="#8dd3c7" stroke="black" points="871.53,-84.8 868.53,-88.8 847.53,-88.8 844.53,-84.8 770.47,-84.8 770.47,-48.8 871.53,-48.8 871.53,-84.8"/>
<text text-anchor="middle" x="821" y="-62.6" font-family="Times,serif" font-size="14.00">FeatureModule</text>
</g>
<!-- FeatureModule&#45;&gt;ViewModule -->
<g id="edge3" class="edge">
<title>FeatureModule&#45;&gt;ViewModule</title>
<path fill="none" stroke="black" d="M821,-85.08C821,-106.12 821,-137.8 821,-137.8 821,-137.8 573.03,-137.8 573.03,-137.8"/>
<polygon fill="black" stroke="black" points="573.04,-134.3 563.03,-137.8 573.03,-141.3 573.04,-134.3"/>
</g>
<!-- LayoutModule -->
<g id="node5" class="node">
<title>LayoutModule</title>
<polygon fill="#8dd3c7" stroke="black" points="752.71,-84.8 749.71,-88.8 728.71,-88.8 725.71,-84.8 653.29,-84.8 653.29,-48.8 752.71,-48.8 752.71,-84.8"/>
<text text-anchor="middle" x="703" y="-62.6" font-family="Times,serif" font-size="14.00">LayoutModule</text>
</g>
<!-- LayoutModule&#45;&gt;ViewModule -->
<g id="edge4" class="edge">
<title>LayoutModule&#45;&gt;ViewModule</title>
<path fill="none" stroke="black" d="M675.15,-84.82C675.15,-102.17 675.15,-125.8 675.15,-125.8 675.15,-125.8 573.03,-125.8 573.03,-125.8"/>
<polygon fill="black" stroke="black" points="573.03,-122.3 563.03,-125.8 573.03,-129.3 573.03,-122.3"/>
</g>
<!-- SharedModule -->
<g id="node6" class="node">
<title>SharedModule</title>
<polygon fill="#8dd3c7" stroke="black" points="635.43,-84.8 632.43,-88.8 611.43,-88.8 608.43,-84.8 536.57,-84.8 536.57,-48.8 635.43,-48.8 635.43,-84.8"/>
<text text-anchor="middle" x="586" y="-62.6" font-family="Times,serif" font-size="14.00">SharedModule</text>
</g>
<!-- SharedModule&#45;&gt;ViewModule -->
<g id="edge5" class="edge">
<title>SharedModule&#45;&gt;ViewModule</title>
<path fill="none" stroke="black" d="M549.86,-84.91C549.86,-84.91 549.86,-103.79 549.86,-103.79"/>
<polygon fill="black" stroke="black" points="546.36,-103.79 549.86,-113.79 553.36,-103.79 546.36,-103.79"/>
</g>
<!-- ViewRoutingModule -->
<g id="node7" class="node">
<title>ViewRoutingModule</title>
<polygon fill="#8dd3c7" stroke="black" points="518.49,-84.8 515.49,-88.8 494.49,-88.8 491.49,-84.8 383.51,-84.8 383.51,-48.8 518.49,-48.8 518.49,-84.8"/>
<text text-anchor="middle" x="451" y="-62.6" font-family="Times,serif" font-size="14.00">ViewRoutingModule</text>
</g>
<!-- ViewRoutingModule&#45;&gt;ViewModule -->
<g id="edge6" class="edge">
<title>ViewRoutingModule&#45;&gt;ViewModule</title>
<path fill="none" stroke="black" d="M495.78,-84.91C495.78,-84.91 495.78,-103.79 495.78,-103.79"/>
<polygon fill="black" stroke="black" points="492.28,-103.79 495.78,-113.79 499.28,-103.79 492.28,-103.79"/>
</g>
</g>
</svg>
