<?xml version="1.0" encoding="UTF-8" standalone="no"?>
<!DOCTYPE svg PUBLIC "-//W3C//DTD SVG 1.1//EN"
 "http://www.w3.org/Graphics/SVG/1.1/DTD/svg11.dtd">
<!-- Generated by graphviz version 5.0.0 (20220707.1540)
 -->
<!-- Title: dependencies Pages: 1 -->
<svg width="544pt" height="174pt"
 viewBox="0.00 0.00 544.00 173.80" xmlns="http://www.w3.org/2000/svg" xmlns:xlink="http://www.w3.org/1999/xlink">
<g id="graph0" class="graph" transform="scale(1 1) rotate(0) translate(4 169.8)">
<title>dependencies</title>
<polygon fill="white" stroke="transparent" points="-4,4 -4,-169.8 540,-169.8 540,4 -4,4"/>
<text text-anchor="middle" x="268" y="-8.2" font-family="sans-serif" font-size="14.00">dependencies</text>
<g id="clust1" class="cluster">
<title>cluster_ViewModule</title>
<polygon fill="none" stroke="black" stroke-dasharray="1,5" points="8,-32.8 8,-157.8 528,-157.8 528,-32.8 8,-32.8"/>
</g>
<g id="clust3" class="cluster">
<title>cluster_ViewModule_imports</title>
<polygon fill="none" stroke="black" points="16,-40.8 16,-92.8 520,-92.8 520,-40.8 16,-40.8"/>
</g>
<!-- FeatureModule -->
<g id="node1" class="node">
<title>FeatureModule</title>
<polygon fill="#8dd3c7" stroke="black" points="511.53,-84.8 508.53,-88.8 487.53,-88.8 484.53,-84.8 410.47,-84.8 410.47,-48.8 511.53,-48.8 511.53,-84.8"/>
<text text-anchor="middle" x="461" y="-62.6" font-family="Times,serif" font-size="14.00">FeatureModule</text>
</g>
<!-- ViewModule -->
<g id="node5" class="node">
<title>ViewModule</title>
<polygon fill="#8dd3c7" stroke="black" points="328.88,-149.8 325.88,-153.8 304.88,-153.8 301.88,-149.8 239.12,-149.8 239.12,-113.8 328.88,-113.8 328.88,-149.8"/>
<text text-anchor="middle" x="284" y="-127.6" font-family="Times,serif" font-size="14.00">ViewModule</text>
</g>
<!-- FeatureModule&#45;&gt;ViewModule -->
<g id="edge1" class="edge">
<title>FeatureModule&#45;&gt;ViewModule</title>
<path fill="none" stroke="black" d="M461,-84.91C461,-104.14 461,-131.8 461,-131.8 461,-131.8 339.12,-131.8 339.12,-131.8"/>
<polygon fill="black" stroke="black" points="339.12,-128.3 329.12,-131.8 339.12,-135.3 339.12,-128.3"/>
</g>
<!-- LayoutModule -->
<g id="node2" class="node">
<title>LayoutModule</title>
<polygon fill="#8dd3c7" stroke="black" points="392.71,-84.8 389.71,-88.8 368.71,-88.8 365.71,-84.8 293.29,-84.8 293.29,-48.8 392.71,-48.8 392.71,-84.8"/>
<text text-anchor="middle" x="343" y="-62.6" font-family="Times,serif" font-size="14.00">LayoutModule</text>
</g>
<!-- LayoutModule&#45;&gt;ViewModule -->
<g id="edge2" class="edge">
<title>LayoutModule&#45;&gt;ViewModule</title>
<path fill="none" stroke="black" d="M311.17,-84.91C311.17,-84.91 311.17,-103.79 311.17,-103.79"/>
<polygon fill="black" stroke="black" points="307.67,-103.79 311.17,-113.79 314.67,-103.79 307.67,-103.79"/>
</g>
<!-- SharedModule -->
<g id="node3" class="node">
<title>SharedModule</title>
<polygon fill="#8dd3c7" stroke="black" points="275.43,-84.8 272.43,-88.8 251.43,-88.8 248.43,-84.8 176.57,-84.8 176.57,-48.8 275.43,-48.8 275.43,-84.8"/>
<text text-anchor="middle" x="226" y="-62.6" font-family="Times,serif" font-size="14.00">SharedModule</text>
</g>
<!-- SharedModule&#45;&gt;ViewModule -->
<g id="edge3" class="edge">
<title>SharedModule&#45;&gt;ViewModule</title>
<path fill="none" stroke="black" d="M257.14,-84.91C257.14,-84.91 257.14,-103.79 257.14,-103.79"/>
<polygon fill="black" stroke="black" points="253.64,-103.79 257.14,-113.79 260.64,-103.79 253.64,-103.79"/>
</g>
<!-- ViewRoutingModule -->
<g id="node4" class="node">
<title>ViewRoutingModule</title>
<polygon fill="#8dd3c7" stroke="black" points="158.49,-84.8 155.49,-88.8 134.49,-88.8 131.49,-84.8 23.51,-84.8 23.51,-48.8 158.49,-48.8 158.49,-84.8"/>
<text text-anchor="middle" x="91" y="-62.6" font-family="Times,serif" font-size="14.00">ViewRoutingModule</text>
</g>
<!-- ViewRoutingModule&#45;&gt;ViewModule -->
<g id="edge4" class="edge">
<title>ViewRoutingModule&#45;&gt;ViewModule</title>
<path fill="none" stroke="black" d="M91,-84.91C91,-104.14 91,-131.8 91,-131.8 91,-131.8 228.75,-131.8 228.75,-131.8"/>
<polygon fill="black" stroke="black" points="228.75,-135.3 238.75,-131.8 228.75,-128.3 228.75,-135.3"/>
</g>
</g>
</svg>
