<?xml version="1.0" encoding="UTF-8" standalone="no"?>
<!DOCTYPE svg PUBLIC "-//W3C//DTD SVG 1.1//EN"
 "http://www.w3.org/Graphics/SVG/1.1/DTD/svg11.dtd">
<!-- Generated by graphviz version 5.0.0 (20220707.1540)
 -->
<!-- Title: dependencies Pages: 1 -->
<svg width="527pt" height="247pt"
 viewBox="0.00 0.00 527.00 246.80" xmlns="http://www.w3.org/2000/svg" xmlns:xlink="http://www.w3.org/1999/xlink">
<g id="graph0" class="graph" transform="scale(1 1) rotate(0) translate(4 242.8)">
<title>dependencies</title>
<polygon fill="white" stroke="transparent" points="-4,4 -4,-242.8 523,-242.8 523,4 -4,4"/>
<text text-anchor="middle" x="259.5" y="-8.2" font-family="sans-serif" font-size="14.00">dependencies</text>
<g id="clust1" class="cluster">
<title>cluster_AppModule</title>
<polygon fill="none" stroke="black" stroke-dasharray="1,5" points="8,-32.8 8,-230.8 511,-230.8 511,-32.8 8,-32.8"/>
</g>
<g id="clust2" class="cluster">
<title>cluster_AppModule_declarations</title>
<polygon fill="none" stroke="black" points="381,-40.8 381,-92.8 503,-92.8 503,-40.8 381,-40.8"/>
</g>
<g id="clust4" class="cluster">
<title>cluster_AppModule_imports</title>
<polygon fill="none" stroke="black" points="16,-40.8 16,-92.8 373,-92.8 373,-40.8 16,-40.8"/>
</g>
<g id="clust6" class="cluster">
<title>cluster_AppModule_bootstrap</title>
<polygon fill="none" stroke="black" points="176,-170.8 176,-222.8 300,-222.8 300,-170.8 176,-170.8"/>
</g>
<!-- AppComponent -->
<g id="node1" class="node">
<title>AppComponent</title>
<polygon fill="#ffffb3" stroke="black" points="494.94,-84.8 389.06,-84.8 389.06,-48.8 494.94,-48.8 494.94,-84.8"/>
<text text-anchor="middle" x="442" y="-62.6" font-family="Times,serif" font-size="14.00">AppComponent</text>
</g>
<!-- AppModule -->
<g id="node2" class="node">
<title>AppModule</title>
<polygon fill="#8dd3c7" stroke="black" points="279.66,-149.8 276.66,-153.8 255.66,-153.8 252.66,-149.8 196.34,-149.8 196.34,-113.8 279.66,-113.8 279.66,-149.8"/>
<text text-anchor="middle" x="238" y="-127.6" font-family="Times,serif" font-size="14.00">AppModule</text>
</g>
<!-- AppComponent&#45;&gt;AppModule -->
<g id="edge1" class="edge">
<title>AppComponent&#45;&gt;AppModule</title>
<path fill="none" stroke="black" d="M442,-84.91C442,-104.14 442,-131.8 442,-131.8 442,-131.8 289.77,-131.8 289.77,-131.8"/>
<polygon fill="black" stroke="black" points="289.77,-128.3 279.77,-131.8 289.77,-135.3 289.77,-128.3"/>
</g>
<!-- AppComponent  -->
<g id="node6" class="node">
<title>AppComponent </title>
<polygon fill="#80b1d3" stroke="black" points="292.44,-214.8 183.56,-214.8 183.56,-178.8 292.44,-178.8 292.44,-214.8"/>
<text text-anchor="middle" x="238" y="-192.6" font-family="Times,serif" font-size="14.00">AppComponent </text>
</g>
<!-- AppModule&#45;&gt;AppComponent  -->
<g id="edge5" class="edge">
<title>AppModule&#45;&gt;AppComponent </title>
<path fill="none" stroke="black" stroke-dasharray="1,5" d="M238,-149.91C238,-149.91 238,-168.79 238,-168.79"/>
<polygon fill="black" stroke="black" points="234.5,-168.79 238,-178.79 241.5,-168.79 234.5,-168.79"/>
</g>
<!-- AppRoutingModule -->
<g id="node3" class="node">
<title>AppRoutingModule</title>
<polygon fill="#8dd3c7" stroke="black" points="365.28,-84.8 362.28,-88.8 341.28,-88.8 338.28,-84.8 236.72,-84.8 236.72,-48.8 365.28,-48.8 365.28,-84.8"/>
<text text-anchor="middle" x="301" y="-62.6" font-family="Times,serif" font-size="14.00">AppRoutingModule</text>
</g>
<!-- AppRoutingModule&#45;&gt;AppModule -->
<g id="edge2" class="edge">
<title>AppRoutingModule&#45;&gt;AppModule</title>
<path fill="none" stroke="black" d="M258.22,-84.91C258.22,-84.91 258.22,-103.79 258.22,-103.79"/>
<polygon fill="black" stroke="black" points="254.72,-103.79 258.22,-113.79 261.72,-103.79 254.72,-103.79"/>
</g>
<!-- CoreModule -->
<g id="node4" class="node">
<title>CoreModule</title>
<polygon fill="#8dd3c7" stroke="black" points="218.27,-84.8 215.27,-88.8 194.27,-88.8 191.27,-84.8 131.73,-84.8 131.73,-48.8 218.27,-48.8 218.27,-84.8"/>
<text text-anchor="middle" x="175" y="-62.6" font-family="Times,serif" font-size="14.00">CoreModule</text>
</g>
<!-- CoreModule&#45;&gt;AppModule -->
<g id="edge3" class="edge">
<title>CoreModule&#45;&gt;AppModule</title>
<path fill="none" stroke="black" d="M207.28,-84.91C207.28,-84.91 207.28,-103.79 207.28,-103.79"/>
<polygon fill="black" stroke="black" points="203.78,-103.79 207.28,-113.79 210.78,-103.79 203.78,-103.79"/>
</g>
<!-- ViewModule -->
<g id="node5" class="node">
<title>ViewModule</title>
<polygon fill="#8dd3c7" stroke="black" points="113.88,-84.8 110.88,-88.8 89.88,-88.8 86.88,-84.8 24.12,-84.8 24.12,-48.8 113.88,-48.8 113.88,-84.8"/>
<text text-anchor="middle" x="69" y="-62.6" font-family="Times,serif" font-size="14.00">ViewModule</text>
</g>
<!-- ViewModule&#45;&gt;AppModule -->
<g id="edge4" class="edge">
<title>ViewModule&#45;&gt;AppModule</title>
<path fill="none" stroke="black" d="M69,-84.91C69,-104.14 69,-131.8 69,-131.8 69,-131.8 186.22,-131.8 186.22,-131.8"/>
<polygon fill="black" stroke="black" points="186.22,-135.3 196.22,-131.8 186.22,-128.3 186.22,-135.3"/>
</g>
</g>
</svg>
