<?xml version="1.0" encoding="UTF-8" standalone="no"?>
<!DOCTYPE svg PUBLIC "-//W3C//DTD SVG 1.1//EN"
 "http://www.w3.org/Graphics/SVG/1.1/DTD/svg11.dtd">
<!-- Generated by graphviz version 5.0.0 (20220707.1540)
 -->
<!-- Title: dependencies Pages: 1 -->
<svg width="1484pt" height="250pt"
 viewBox="0.00 0.00 1484.00 249.80" xmlns="http://www.w3.org/2000/svg" xmlns:xlink="http://www.w3.org/1999/xlink">
<g id="graph0" class="graph" transform="scale(1 1) rotate(0) translate(4 245.8)">
<title>dependencies</title>
<polygon fill="white" stroke="transparent" points="-4,4 -4,-245.8 1480,-245.8 1480,4 -4,4"/>
<text text-anchor="middle" x="738" y="-8.2" font-family="sans-serif" font-size="14.00">dependencies</text>
<g id="clust1" class="cluster">
<title>cluster_AppModule</title>
<polygon fill="none" stroke="black" stroke-dasharray="1,5" points="8,-32.8 8,-233.8 403,-233.8 403,-32.8 8,-32.8"/>
</g>
<g id="clust2" class="cluster">
<title>cluster_AppModule_declarations</title>
<polygon fill="none" stroke="black" points="273,-40.8 273,-92.8 395,-92.8 395,-40.8 273,-40.8"/>
</g>
<g id="clust4" class="cluster">
<title>cluster_AppModule_imports</title>
<polygon fill="none" stroke="black" points="16,-40.8 16,-92.8 265,-92.8 265,-40.8 16,-40.8"/>
</g>
<g id="clust6" class="cluster">
<title>cluster_AppModule_bootstrap</title>
<polygon fill="none" stroke="black" points="131,-173.8 131,-225.8 255,-225.8 255,-173.8 131,-173.8"/>
</g>
<g id="clust44" class="cluster">
<title>cluster_SharedModule</title>
<polygon fill="none" stroke="black" stroke-dasharray="1,5" points="411,-40.8 411,-165.8 697,-165.8 697,-40.8 411,-40.8"/>
</g>
<g id="clust47" class="cluster">
<title>cluster_SharedModule_exports</title>
<polygon fill="none" stroke="black" points="419,-105.8 419,-157.8 689,-157.8 689,-105.8 419,-105.8"/>
</g>
<g id="clust50" class="cluster">
<title>cluster_ViewModule</title>
<polygon fill="none" stroke="black" stroke-dasharray="1,5" points="705,-32.8 705,-233.8 1468,-233.8 1468,-32.8 705,-32.8"/>
</g>
<g id="clust51" class="cluster">
<title>cluster_ViewModule_declarations</title>
<polygon fill="none" stroke="black" points="1108,-40.8 1108,-92.8 1460,-92.8 1460,-40.8 1108,-40.8"/>
</g>
<g id="clust54" class="cluster">
<title>cluster_ViewModule_imports</title>
<polygon fill="none" stroke="black" points="713,-40.8 713,-92.8 1100,-92.8 1100,-40.8 713,-40.8"/>
</g>
<g id="clust55" class="cluster">
<title>cluster_ViewModule_exports</title>
<polygon fill="none" stroke="black" points="809,-173.8 809,-225.8 1169,-225.8 1169,-173.8 809,-173.8"/>
</g>
<!-- AppComponent -->
<g id="node1" class="node">
<title>AppComponent</title>
<polygon fill="#ffffb3" stroke="black" points="386.94,-84.8 281.06,-84.8 281.06,-48.8 386.94,-48.8 386.94,-84.8"/>
<text text-anchor="middle" x="334" y="-62.6" font-family="Times,serif" font-size="14.00">AppComponent</text>
</g>
<!-- AppModule -->
<g id="node2" class="node">
<title>AppModule</title>
<polygon fill="#8dd3c7" stroke="black" points="234.66,-149.8 231.66,-153.8 210.66,-153.8 207.66,-149.8 151.34,-149.8 151.34,-113.8 234.66,-113.8 234.66,-149.8"/>
<text text-anchor="middle" x="193" y="-127.6" font-family="Times,serif" font-size="14.00">AppModule</text>
</g>
<!-- AppComponent&#45;&gt;AppModule -->
<g id="edge1" class="edge">
<title>AppComponent&#45;&gt;AppModule</title>
<path fill="none" stroke="black" d="M334,-84.91C334,-104.14 334,-131.8 334,-131.8 334,-131.8 244.92,-131.8 244.92,-131.8"/>
<polygon fill="black" stroke="black" points="244.92,-128.3 234.92,-131.8 244.92,-135.3 244.92,-128.3"/>
</g>
<!-- AppComponent  -->
<g id="node5" class="node">
<title>AppComponent </title>
<polygon fill="#80b1d3" stroke="black" points="247.44,-217.8 138.56,-217.8 138.56,-181.8 247.44,-181.8 247.44,-217.8"/>
<text text-anchor="middle" x="193" y="-195.6" font-family="Times,serif" font-size="14.00">AppComponent </text>
</g>
<!-- AppModule&#45;&gt;AppComponent  -->
<g id="edge4" class="edge">
<title>AppModule&#45;&gt;AppComponent </title>
<path fill="none" stroke="black" stroke-dasharray="1,5" d="M193,-150.02C193,-150.02 193,-171.53 193,-171.53"/>
<polygon fill="black" stroke="black" points="189.5,-171.53 193,-181.53 196.5,-171.53 189.5,-171.53"/>
</g>
<!-- AppRoutingModule -->
<g id="node3" class="node">
<title>AppRoutingModule</title>
<polygon fill="#8dd3c7" stroke="black" points="257.28,-84.8 254.28,-88.8 233.28,-88.8 230.28,-84.8 128.72,-84.8 128.72,-48.8 257.28,-48.8 257.28,-84.8"/>
<text text-anchor="middle" x="193" y="-62.6" font-family="Times,serif" font-size="14.00">AppRoutingModule</text>
</g>
<!-- AppRoutingModule&#45;&gt;AppModule -->
<g id="edge2" class="edge">
<title>AppRoutingModule&#45;&gt;AppModule</title>
<path fill="none" stroke="black" d="M193,-84.91C193,-84.91 193,-103.79 193,-103.79"/>
<polygon fill="black" stroke="black" points="189.5,-103.79 193,-113.79 196.5,-103.79 189.5,-103.79"/>
</g>
<!-- CoreModule -->
<g id="node4" class="node">
<title>CoreModule</title>
<polygon fill="#8dd3c7" stroke="black" points="110.27,-84.8 107.27,-88.8 86.27,-88.8 83.27,-84.8 23.73,-84.8 23.73,-48.8 110.27,-48.8 110.27,-84.8"/>
<text text-anchor="middle" x="67" y="-62.6" font-family="Times,serif" font-size="14.00">CoreModule</text>
</g>
<!-- CoreModule&#45;&gt;AppModule -->
<g id="edge3" class="edge">
<title>CoreModule&#45;&gt;AppModule</title>
<path fill="none" stroke="black" d="M67,-84.91C67,-104.14 67,-131.8 67,-131.8 67,-131.8 141.04,-131.8 141.04,-131.8"/>
<polygon fill="black" stroke="black" points="141.04,-135.3 151.04,-131.8 141.04,-128.3 141.04,-135.3"/>
</g>
<!-- C3ImportModule  -->
<g id="node6" class="node">
<title>C3ImportModule </title>
<polygon fill="#fb8072" stroke="black" points="680.99,-149.8 563.01,-149.8 563.01,-113.8 680.99,-113.8 680.99,-149.8"/>
<text text-anchor="middle" x="622" y="-127.6" font-family="Times,serif" font-size="14.00">C3ImportModule </text>
</g>
<!-- NgImportModule  -->
<g id="node7" class="node">
<title>NgImportModule </title>
<polygon fill="#fb8072" stroke="black" points="545.27,-149.8 426.73,-149.8 426.73,-113.8 545.27,-113.8 545.27,-149.8"/>
<text text-anchor="middle" x="486" y="-127.6" font-family="Times,serif" font-size="14.00">NgImportModule </text>
</g>
<!-- SharedModule -->
<g id="node8" class="node">
<title>SharedModule</title>
<polygon fill="#8dd3c7" stroke="black" points="671.43,-84.8 668.43,-88.8 647.43,-88.8 644.43,-84.8 572.57,-84.8 572.57,-48.8 671.43,-48.8 671.43,-84.8"/>
<text text-anchor="middle" x="622" y="-62.6" font-family="Times,serif" font-size="14.00">SharedModule</text>
</g>
<!-- SharedModule&#45;&gt;C3ImportModule  -->
<g id="edge5" class="edge">
<title>SharedModule&#45;&gt;C3ImportModule </title>
<path fill="none" stroke="black" stroke-dasharray="5,2" d="M622,-84.91C622,-84.91 622,-103.79 622,-103.79"/>
<polygon fill="black" stroke="black" points="618.5,-103.79 622,-113.79 625.5,-103.79 618.5,-103.79"/>
</g>
<!-- SharedModule&#45;&gt;NgImportModule  -->
<g id="edge6" class="edge">
<title>SharedModule&#45;&gt;NgImportModule </title>
<path fill="none" stroke="black" stroke-dasharray="5,2" d="M572.52,-66.8C533.63,-66.8 486,-66.8 486,-66.8 486,-66.8 486,-103.69 486,-103.69"/>
<polygon fill="black" stroke="black" points="482.5,-103.69 486,-113.69 489.5,-103.69 482.5,-103.69"/>
</g>
<!-- ViewModule -->
<g id="node11" class="node">
<title>ViewModule</title>
<polygon fill="#8dd3c7" stroke="black" points="1026.88,-149.8 1023.88,-153.8 1002.88,-153.8 999.88,-149.8 937.12,-149.8 937.12,-113.8 1026.88,-113.8 1026.88,-149.8"/>
<text text-anchor="middle" x="982" y="-127.6" font-family="Times,serif" font-size="14.00">ViewModule</text>
</g>
<!-- SharedModule&#45;&gt;ViewModule -->
<g id="edge11" class="edge">
<title>SharedModule&#45;&gt;ViewModule</title>
<path fill="none" stroke="black" d="M671.35,-66.8C687.14,-66.8 700.62,-66.8 700.62,-66.8 700.62,-66.8 700.62,-137.8 700.62,-137.8 700.62,-137.8 927.1,-137.8 927.1,-137.8"/>
<polygon fill="black" stroke="black" points="927.1,-141.3 937.1,-137.8 927.1,-134.3 927.1,-141.3"/>
</g>
<!-- ViewDashboardComponent -->
<g id="node9" class="node">
<title>ViewDashboardComponent</title>
<polygon fill="#ffffb3" stroke="black" points="1452.3,-84.8 1279.7,-84.8 1279.7,-48.8 1452.3,-48.8 1452.3,-84.8"/>
<text text-anchor="middle" x="1366" y="-62.6" font-family="Times,serif" font-size="14.00">ViewDashboardComponent</text>
</g>
<!-- ViewDashboardComponent&#45;&gt;ViewModule -->
<g id="edge7" class="edge">
<title>ViewDashboardComponent&#45;&gt;ViewModule</title>
<path fill="none" stroke="black" d="M1366,-85.08C1366,-106.12 1366,-137.8 1366,-137.8 1366,-137.8 1037.18,-137.8 1037.18,-137.8"/>
<polygon fill="black" stroke="black" points="1037.18,-134.3 1027.18,-137.8 1037.18,-141.3 1037.18,-134.3"/>
</g>
<!-- ViewHomeComponent -->
<g id="node10" class="node">
<title>ViewHomeComponent</title>
<polygon fill="#ffffb3" stroke="black" points="1261.87,-84.8 1116.13,-84.8 1116.13,-48.8 1261.87,-48.8 1261.87,-84.8"/>
<text text-anchor="middle" x="1189" y="-62.6" font-family="Times,serif" font-size="14.00">ViewHomeComponent</text>
</g>
<!-- ViewHomeComponent&#45;&gt;ViewModule -->
<g id="edge8" class="edge">
<title>ViewHomeComponent&#45;&gt;ViewModule</title>
<path fill="none" stroke="black" d="M1138.48,-84.82C1138.48,-102.17 1138.48,-125.8 1138.48,-125.8 1138.48,-125.8 1037.26,-125.8 1037.26,-125.8"/>
<polygon fill="black" stroke="black" points="1037.26,-122.3 1027.26,-125.8 1037.26,-129.3 1037.26,-122.3"/>
</g>
<!-- ViewDashboardComponent  -->
<g id="node15" class="node">
<title>ViewDashboardComponent </title>
<polygon fill="#fb8072" stroke="black" points="1160.8,-217.8 985.2,-217.8 985.2,-181.8 1160.8,-181.8 1160.8,-217.8"/>
<text text-anchor="middle" x="1073" y="-195.6" font-family="Times,serif" font-size="14.00">ViewDashboardComponent </text>
</g>
<!-- ViewModule&#45;&gt;ViewDashboardComponent  -->
<g id="edge13" class="edge">
<title>ViewModule&#45;&gt;ViewDashboardComponent </title>
<path fill="none" stroke="black" stroke-dasharray="5,2" d="M1006.02,-150.02C1006.02,-150.02 1006.02,-171.53 1006.02,-171.53"/>
<polygon fill="black" stroke="black" points="1002.52,-171.53 1006.02,-181.53 1009.52,-171.53 1002.52,-171.53"/>
</g>
<!-- ViewHomeComponent  -->
<g id="node16" class="node">
<title>ViewHomeComponent </title>
<polygon fill="#fb8072" stroke="black" points="966.87,-217.8 817.13,-217.8 817.13,-181.8 966.87,-181.8 966.87,-217.8"/>
<text text-anchor="middle" x="892" y="-195.6" font-family="Times,serif" font-size="14.00">ViewHomeComponent </text>
</g>
<!-- ViewModule&#45;&gt;ViewHomeComponent  -->
<g id="edge14" class="edge">
<title>ViewModule&#45;&gt;ViewHomeComponent </title>
<path fill="none" stroke="black" stroke-dasharray="5,2" d="M951.87,-150.02C951.87,-150.02 951.87,-171.53 951.87,-171.53"/>
<polygon fill="black" stroke="black" points="948.37,-171.53 951.87,-181.53 955.37,-171.53 948.37,-171.53"/>
</g>
<!-- FeatureModule -->
<g id="node12" class="node">
<title>FeatureModule</title>
<polygon fill="#8dd3c7" stroke="black" points="1091.53,-84.8 1088.53,-88.8 1067.53,-88.8 1064.53,-84.8 990.47,-84.8 990.47,-48.8 1091.53,-48.8 1091.53,-84.8"/>
<text text-anchor="middle" x="1041" y="-62.6" font-family="Times,serif" font-size="14.00">FeatureModule</text>
</g>
<!-- FeatureModule&#45;&gt;ViewModule -->
<g id="edge9" class="edge">
<title>FeatureModule&#45;&gt;ViewModule</title>
<path fill="none" stroke="black" d="M1008.59,-84.91C1008.59,-84.91 1008.59,-103.79 1008.59,-103.79"/>
<polygon fill="black" stroke="black" points="1005.09,-103.79 1008.59,-113.79 1012.09,-103.79 1005.09,-103.79"/>
</g>
<!-- LayoutModule -->
<g id="node13" class="node">
<title>LayoutModule</title>
<polygon fill="#8dd3c7" stroke="black" points="972.71,-84.8 969.71,-88.8 948.71,-88.8 945.71,-84.8 873.29,-84.8 873.29,-48.8 972.71,-48.8 972.71,-84.8"/>
<text text-anchor="middle" x="923" y="-62.6" font-family="Times,serif" font-size="14.00">LayoutModule</text>
</g>
<!-- LayoutModule&#45;&gt;ViewModule -->
<g id="edge10" class="edge">
<title>LayoutModule&#45;&gt;ViewModule</title>
<path fill="none" stroke="black" d="M954.83,-84.91C954.83,-84.91 954.83,-103.79 954.83,-103.79"/>
<polygon fill="black" stroke="black" points="951.33,-103.79 954.83,-113.79 958.33,-103.79 951.33,-103.79"/>
</g>
<!-- ViewRoutingModule -->
<g id="node14" class="node">
<title>ViewRoutingModule</title>
<polygon fill="#8dd3c7" stroke="black" points="855.49,-84.8 852.49,-88.8 831.49,-88.8 828.49,-84.8 720.51,-84.8 720.51,-48.8 855.49,-48.8 855.49,-84.8"/>
<text text-anchor="middle" x="788" y="-62.6" font-family="Times,serif" font-size="14.00">ViewRoutingModule</text>
</g>
<!-- ViewRoutingModule&#45;&gt;ViewModule -->
<g id="edge12" class="edge">
<title>ViewRoutingModule&#45;&gt;ViewModule</title>
<path fill="none" stroke="black" d="M836.41,-84.82C836.41,-102.17 836.41,-125.8 836.41,-125.8 836.41,-125.8 926.73,-125.8 926.73,-125.8"/>
<polygon fill="black" stroke="black" points="926.73,-129.3 936.73,-125.8 926.73,-122.3 926.73,-129.3"/>
</g>
</g>
</svg>
