<?xml version="1.0" encoding="UTF-8" standalone="no"?>
<!DOCTYPE svg PUBLIC "-//W3C//DTD SVG 1.1//EN"
 "http://www.w3.org/Graphics/SVG/1.1/DTD/svg11.dtd">
<!-- Generated by graphviz version 5.0.0 (20220707.1540)
 -->
<!-- Title: dependencies Pages: 1 -->
<svg width="910pt" height="323pt"
 viewBox="0.00 0.00 910.00 322.80" xmlns="http://www.w3.org/2000/svg" xmlns:xlink="http://www.w3.org/1999/xlink">
<g id="graph0" class="graph" transform="scale(1 1) rotate(0) translate(4 318.8)">
<title>dependencies</title>
<polygon fill="white" stroke="transparent" points="-4,4 -4,-318.8 906,-318.8 906,4 -4,4"/>
<text text-anchor="middle" x="451" y="-8.2" font-family="sans-serif" font-size="14.00">dependencies</text>
<g id="clust1" class="cluster">
<title>cluster_AppModule</title>
<polygon fill="none" stroke="black" stroke-dasharray="1,5" points="391,-108.8 391,-306.8 894,-306.8 894,-108.8 391,-108.8"/>
</g>
<g id="clust2" class="cluster">
<title>cluster_AppModule_declarations</title>
<polygon fill="none" stroke="black" points="764,-116.8 764,-168.8 886,-168.8 886,-116.8 764,-116.8"/>
</g>
<g id="clust4" class="cluster">
<title>cluster_AppModule_imports</title>
<polygon fill="none" stroke="black" points="399,-116.8 399,-168.8 756,-168.8 756,-116.8 399,-116.8"/>
</g>
<g id="clust6" class="cluster">
<title>cluster_AppModule_bootstrap</title>
<polygon fill="none" stroke="black" points="559,-246.8 559,-298.8 683,-298.8 683,-246.8 559,-246.8"/>
</g>
<g id="clust44" class="cluster">
<title>cluster_SharedModule</title>
<polygon fill="none" stroke="black" stroke-dasharray="1,5" points="8,-40.8 8,-176.8 294,-176.8 294,-40.8 8,-40.8"/>
</g>
<g id="clust47" class="cluster">
<title>cluster_SharedModule_exports</title>
<polygon fill="none" stroke="black" points="16,-116.8 16,-168.8 286,-168.8 286,-116.8 16,-116.8"/>
</g>
<g id="clust50" class="cluster">
<title>cluster_ViewModule</title>
<polygon fill="none" stroke="black" stroke-dasharray="1,5" points="302,-32.8 302,-100.8 705,-100.8 705,-32.8 302,-32.8"/>
</g>
<g id="clust52" class="cluster">
<title>cluster_ViewModule_imports</title>
<polygon fill="none" stroke="black" points="310,-40.8 310,-92.8 697,-92.8 697,-40.8 310,-40.8"/>
</g>
<!-- AppComponent -->
<g id="node1" class="node">
<title>AppComponent</title>
<polygon fill="#ffffb3" stroke="black" points="877.94,-160.8 772.06,-160.8 772.06,-124.8 877.94,-124.8 877.94,-160.8"/>
<text text-anchor="middle" x="825" y="-138.6" font-family="Times,serif" font-size="14.00">AppComponent</text>
</g>
<!-- AppModule -->
<g id="node2" class="node">
<title>AppModule</title>
<polygon fill="#8dd3c7" stroke="black" points="662.66,-225.8 659.66,-229.8 638.66,-229.8 635.66,-225.8 579.34,-225.8 579.34,-189.8 662.66,-189.8 662.66,-225.8"/>
<text text-anchor="middle" x="621" y="-203.6" font-family="Times,serif" font-size="14.00">AppModule</text>
</g>
<!-- AppComponent&#45;&gt;AppModule -->
<g id="edge1" class="edge">
<title>AppComponent&#45;&gt;AppModule</title>
<path fill="none" stroke="black" d="M825,-160.91C825,-180.14 825,-207.8 825,-207.8 825,-207.8 672.77,-207.8 672.77,-207.8"/>
<polygon fill="black" stroke="black" points="672.77,-204.3 662.77,-207.8 672.77,-211.3 672.77,-204.3"/>
</g>
<!-- AppComponent  -->
<g id="node6" class="node">
<title>AppComponent </title>
<polygon fill="#80b1d3" stroke="black" points="675.44,-290.8 566.56,-290.8 566.56,-254.8 675.44,-254.8 675.44,-290.8"/>
<text text-anchor="middle" x="621" y="-268.6" font-family="Times,serif" font-size="14.00">AppComponent </text>
</g>
<!-- AppModule&#45;&gt;AppComponent  -->
<g id="edge5" class="edge">
<title>AppModule&#45;&gt;AppComponent </title>
<path fill="none" stroke="black" stroke-dasharray="1,5" d="M621,-225.91C621,-225.91 621,-244.79 621,-244.79"/>
<polygon fill="black" stroke="black" points="617.5,-244.79 621,-254.79 624.5,-244.79 617.5,-244.79"/>
</g>
<!-- AppRoutingModule -->
<g id="node3" class="node">
<title>AppRoutingModule</title>
<polygon fill="#8dd3c7" stroke="black" points="748.28,-160.8 745.28,-164.8 724.28,-164.8 721.28,-160.8 619.72,-160.8 619.72,-124.8 748.28,-124.8 748.28,-160.8"/>
<text text-anchor="middle" x="684" y="-138.6" font-family="Times,serif" font-size="14.00">AppRoutingModule</text>
</g>
<!-- AppRoutingModule&#45;&gt;AppModule -->
<g id="edge2" class="edge">
<title>AppRoutingModule&#45;&gt;AppModule</title>
<path fill="none" stroke="black" d="M641.22,-160.91C641.22,-160.91 641.22,-179.79 641.22,-179.79"/>
<polygon fill="black" stroke="black" points="637.72,-179.79 641.22,-189.79 644.72,-179.79 637.72,-179.79"/>
</g>
<!-- CoreModule -->
<g id="node4" class="node">
<title>CoreModule</title>
<polygon fill="#8dd3c7" stroke="black" points="601.27,-160.8 598.27,-164.8 577.27,-164.8 574.27,-160.8 514.73,-160.8 514.73,-124.8 601.27,-124.8 601.27,-160.8"/>
<text text-anchor="middle" x="558" y="-138.6" font-family="Times,serif" font-size="14.00">CoreModule</text>
</g>
<!-- CoreModule&#45;&gt;AppModule -->
<g id="edge3" class="edge">
<title>CoreModule&#45;&gt;AppModule</title>
<path fill="none" stroke="black" d="M590.28,-160.91C590.28,-160.91 590.28,-179.79 590.28,-179.79"/>
<polygon fill="black" stroke="black" points="586.78,-179.79 590.28,-189.79 593.78,-179.79 586.78,-179.79"/>
</g>
<!-- ViewModule -->
<g id="node5" class="node">
<title>ViewModule</title>
<polygon fill="#8dd3c7" stroke="black" points="496.88,-160.8 493.88,-164.8 472.88,-164.8 469.88,-160.8 407.12,-160.8 407.12,-124.8 496.88,-124.8 496.88,-160.8"/>
<text text-anchor="middle" x="452" y="-138.6" font-family="Times,serif" font-size="14.00">ViewModule</text>
</g>
<!-- ViewModule&#45;&gt;AppModule -->
<g id="edge4" class="edge">
<title>ViewModule&#45;&gt;AppModule</title>
<path fill="none" stroke="black" d="M452,-160.91C452,-180.14 452,-207.8 452,-207.8 452,-207.8 569.22,-207.8 569.22,-207.8"/>
<polygon fill="black" stroke="black" points="569.22,-211.3 579.22,-207.8 569.22,-204.3 569.22,-211.3"/>
</g>
<!-- C3ImportModule  -->
<g id="node7" class="node">
<title>C3ImportModule </title>
<polygon fill="#fb8072" stroke="black" points="277.99,-160.8 160.01,-160.8 160.01,-124.8 277.99,-124.8 277.99,-160.8"/>
<text text-anchor="middle" x="219" y="-138.6" font-family="Times,serif" font-size="14.00">C3ImportModule </text>
</g>
<!-- NgImportModule  -->
<g id="node8" class="node">
<title>NgImportModule </title>
<polygon fill="#fb8072" stroke="black" points="142.27,-160.8 23.73,-160.8 23.73,-124.8 142.27,-124.8 142.27,-160.8"/>
<text text-anchor="middle" x="83" y="-138.6" font-family="Times,serif" font-size="14.00">NgImportModule </text>
</g>
<!-- SharedModule -->
<g id="node9" class="node">
<title>SharedModule</title>
<polygon fill="#8dd3c7" stroke="black" points="268.43,-84.8 265.43,-88.8 244.43,-88.8 241.43,-84.8 169.57,-84.8 169.57,-48.8 268.43,-48.8 268.43,-84.8"/>
<text text-anchor="middle" x="219" y="-62.6" font-family="Times,serif" font-size="14.00">SharedModule</text>
</g>
<!-- SharedModule&#45;&gt;ViewModule -->
<g id="edge10" class="edge">
<title>SharedModule&#45;&gt;ViewModule</title>
<path fill="none" stroke="black" d="M268.35,-66.8C284.14,-66.8 297.62,-66.8 297.62,-66.8 297.62,-66.8 297.62,-142.8 297.62,-142.8 297.62,-142.8 396.93,-142.8 396.93,-142.8"/>
<polygon fill="black" stroke="black" points="396.93,-146.3 406.93,-142.8 396.93,-139.3 396.93,-146.3"/>
</g>
<!-- SharedModule&#45;&gt;C3ImportModule  -->
<g id="edge6" class="edge">
<title>SharedModule&#45;&gt;C3ImportModule </title>
<path fill="none" stroke="black" stroke-dasharray="5,2" d="M219,-84.81C219,-84.81 219,-114.65 219,-114.65"/>
<polygon fill="black" stroke="black" points="215.5,-114.65 219,-124.65 222.5,-114.65 215.5,-114.65"/>
</g>
<!-- SharedModule&#45;&gt;NgImportModule  -->
<g id="edge7" class="edge">
<title>SharedModule&#45;&gt;NgImportModule </title>
<path fill="none" stroke="black" stroke-dasharray="5,2" d="M169.52,-66.8C130.63,-66.8 83,-66.8 83,-66.8 83,-66.8 83,-114.79 83,-114.79"/>
<polygon fill="black" stroke="black" points="79.5,-114.79 83,-124.79 86.5,-114.79 79.5,-114.79"/>
</g>
<!-- FeatureModule -->
<g id="node10" class="node">
<title>FeatureModule</title>
<polygon fill="#8dd3c7" stroke="black" points="688.53,-84.8 685.53,-88.8 664.53,-88.8 661.53,-84.8 587.47,-84.8 587.47,-48.8 688.53,-48.8 688.53,-84.8"/>
<text text-anchor="middle" x="638" y="-62.6" font-family="Times,serif" font-size="14.00">FeatureModule</text>
</g>
<!-- FeatureModule&#45;&gt;ViewModule -->
<g id="edge8" class="edge">
<title>FeatureModule&#45;&gt;ViewModule</title>
<path fill="none" stroke="black" d="M594.31,-84.91C594.31,-94.7 594.31,-104.8 594.31,-104.8 594.31,-104.8 488.09,-104.8 488.09,-104.8 488.09,-104.8 488.09,-114.69 488.09,-114.69"/>
<polygon fill="black" stroke="black" points="484.59,-114.69 488.09,-124.69 491.59,-114.69 484.59,-114.69"/>
</g>
<!-- LayoutModule -->
<g id="node11" class="node">
<title>LayoutModule</title>
<polygon fill="#8dd3c7" stroke="black" points="569.71,-84.8 566.71,-88.8 545.71,-88.8 542.71,-84.8 470.29,-84.8 470.29,-48.8 569.71,-48.8 569.71,-84.8"/>
<text text-anchor="middle" x="520" y="-62.6" font-family="Times,serif" font-size="14.00">LayoutModule</text>
</g>
<!-- LayoutModule&#45;&gt;ViewModule -->
<g id="edge9" class="edge">
<title>LayoutModule&#45;&gt;ViewModule</title>
<path fill="none" stroke="black" d="M479.24,-84.81C479.24,-84.81 479.24,-114.65 479.24,-114.65"/>
<polygon fill="black" stroke="black" points="475.74,-114.65 479.24,-124.65 482.74,-114.65 475.74,-114.65"/>
</g>
<!-- ViewRoutingModule -->
<g id="node12" class="node">
<title>ViewRoutingModule</title>
<polygon fill="#8dd3c7" stroke="black" points="452.49,-84.8 449.49,-88.8 428.49,-88.8 425.49,-84.8 317.51,-84.8 317.51,-48.8 452.49,-48.8 452.49,-84.8"/>
<text text-anchor="middle" x="385" y="-62.6" font-family="Times,serif" font-size="14.00">ViewRoutingModule</text>
</g>
<!-- ViewRoutingModule&#45;&gt;ViewModule -->
<g id="edge11" class="edge">
<title>ViewRoutingModule&#45;&gt;ViewModule</title>
<path fill="none" stroke="black" d="M429.78,-84.81C429.78,-84.81 429.78,-114.65 429.78,-114.65"/>
<polygon fill="black" stroke="black" points="426.28,-114.65 429.78,-124.65 433.28,-114.65 426.28,-114.65"/>
</g>
</g>
</svg>
